<svg version="1.1" id="Calque_1" xmlns="http://www.w3.org/2000/svg" xmlns:xlink="http://www.w3.org/1999/xlink" x="0px" y="0px" viewBox="0 0 230 120" style="enable-background:new 0 0 230 120;" xml:space="preserve">
    <style type="text/css">
        .mdv{fill:#27797D;}
        .mdv1{fill:none;}
    </style>
    <path class="mdv" d="M98.2,5.6c0.1,0.8-0.7,0.9-1.1,1.2c-0.3,0.3-0.5,0.7-0.9,1C96,8,95.7,8.1,95.5,8.3c-0.4,0.3-0.6,0.9-1,1.3
        c-0.6,0.7-1.1,1-1.6,1.8c-0.4,0.6-0.7,1.4-1.2,2c0.1,0.3-0.3,0.5,0,0.5c-0.5,0.3-0.6,1-0.9,1.5c-0.2,0.3-0.5,0.6-0.7,0.9
        c-0.3,1.2-1,2.1-1.5,3.2c-0.4,0.7-0.3,1.6-0.9,2.3c-0.6,2-1.6,3.9-2.4,5.9s-1.4,4-2.5,5.8c-0.2,1.3-0.7,2.5-1.1,3.8
        c-0.1,0.4-0.4,0.7-0.5,1.1c-0.3,0.7-0.4,1.6-0.7,2.3c-0.2,0.4-0.5,0.9-0.8,1.4l-0.6,1.5c-0.1,0.2-0.3,0.3-0.4,0.5
        c-0.4,0.7-0.5,1.5-0.8,2.2c-0.1,0.3-0.4,0.6-0.5,1c-0.2,0.6-0.4,1.1-0.8,1.4c0,0.5-0.1,0.8-0.3,1.2c-0.1,0.2-0.4,0.4-0.5,0.6
        s0,0.5-0.1,0.7c-0.2,0.7-0.8,1.3-1.2,1.9c-0.4,0.7-0.5,1.3-0.9,2c-0.1,0.9-0.8,1.6-1.2,2.6c-0.7,1.3-1.4,2.8-2.1,4.1
        c-0.4,0.8-0.8,1.7-1.1,2.4c-0.2,0.4-0.6,0.6-0.5,1.1c-0.4,0.2-0.4,0.7-0.8,0.9c-1.1,2.4-2.6,4.4-3.8,6.7c-0.1,0.2,0.1,0.3,0,0.5
        c-1.1,0.7-1.4,2-2.2,3.2c-0.4,0.7-0.9,1.4-1.4,2.1c-0.2,0.4-0.5,0.7-0.7,1c-0.4,0.6-0.9,1-1.1,1.8c-0.4,0.6-1.1,1.2-1.5,1.8
        c-0.2,0.2-0.2,0.6-0.4,0.9c-0.2,0.4-0.6,0.6-0.8,1c0,0.1-0.1,0.3-0.1,0.4c-0.2,0.6-0.9,1.1-0.9,1.9c-0.9,0.8-1.4,1.8-2.1,2.8
        c-0.5,0.3-0.8,0.9-1.3,1.3s-1.5,1-2.5,0.7c-0.3-0.1-1-0.6-1.1-0.9c-0.3-0.5-0.8-1.9-0.9-2.8c-0.1-0.8-0.2-1.7-0.1-2.3
        c0-0.2,0-0.3,0.2-0.4c-0.4-1.2,0.1-2.2,0.2-3.3s0-2,0.3-2.9c0-0.7,0.3-1.2,0.3-1.7c0.1-0.7,0.2-1.2,0.3-1.8c0.1-0.3,0.3-0.6,0.3-0.8
        v-0.6c0.1-0.3,0.3-0.4,0.4-0.7s0.2-0.8,0.3-1.3c0.1-0.4,0.4-0.8,0.4-1.1c0-0.2-0.1-0.5-0.1-0.7c0.1-0.5,0.6-1.2,0.8-1.8
        c0.1-0.3,0.1-0.7,0.2-1.1s0.1-0.8,0.2-1.1s0.4-0.5,0.5-0.8c0.1-0.2,0-0.5,0.1-0.8c0.1-0.6,0.5-1.3,0.6-2c0-0.3,0.5-0.6,0.6-0.9
        c0.1-0.4,0.2-0.9,0.3-1.4c0.7-3.6,2-7.6,1.5-11.6c0.4-1.2-0.2-2.4,0-3.8c0.3-0.2,0.7-0.4,1.1-0.2c0.7,2.5,0.8,6.2,0.5,9.1
        c0,1.2,0,3-0.4,4.3c0.3,0.9-0.2,1.8-0.4,2.6c-0.4,1.8-0.5,3.6-1.1,5.2c0.1,0.8-0.3,1.1-0.3,1.9c-0.3,0.4-0.5,1-0.5,1.5L53,70.4
        c-1.3,4.3-3.1,9-3.7,14c0.3,0.4-0.1,1.2,0.4,1.5c0.4,0,0.5-0.4,0.8-0.7l1.2-0.9c0.3-0.2,0.4-0.6,0.7-0.8c0.5-1.4,1.5-2.2,2.3-3.3
        c0.4-0.5,0.8-0.9,1.1-1.4c0.3-0.4,0.5-0.9,0.8-1.4c0.8-1.3,1.7-2.6,2.8-3.8c0.4-0.9,0.8-1.7,1.3-2.6c0.2-0.3,0.3-0.6,0.4-0.9
        c0.3-0.5,0.9-0.8,1-1.4c1.7-1.1,2.1-3.5,3.5-4.9c0-0.6,0.5-1.1,0.7-1.6c0.2-0.6,0.4-1.2,0.7-1.7c0.2-0.4,0.6-0.8,0.8-1.2
        c0.3-0.5,0.3-1,0.6-1.4c0.2-0.2,0.4-0.4,0.6-0.7c0.6-0.8,0.9-1.8,1.5-2.7c0.3-0.4,0.5-0.9,0.7-1.4c0.2-0.4,0.5-0.9,0.8-1.3
        c0.9-1.6,1.6-3.3,2.4-5c0.1-0.3,0.2-0.6,0.4-0.9c0.1-0.3,0.4-0.5,0.5-0.7c0.2-0.4,0.2-0.8,0.4-1.1c0.1-0.2,0.3-0.3,0.4-0.5
        s0-0.4,0.1-0.5c0.1-0.3,0.4-0.6,0.5-0.9s0.3-0.7,0.4-1c0.3-0.6,0.5-1.3,0.8-2c0.3-0.6,0.8-1.1,1-1.6c0.1-0.3,0.1-0.7,0.2-1
        c0.2-0.5,0.6-0.9,0.9-1.4c0.4-0.8,0.5-1.7,0.8-2.6c0.1-0.4,0.5-0.6,0.6-1l0.3-0.9c0.4-1,0.8-2,1.1-3c0-0.2,0.1-0.2,0.3-0.3
        c0.2-1,0.6-1.8,1-2.9c0.1-0.3,0.1-0.6,0.3-0.9c0.2-0.4,0.6-0.8,0.8-1.2s0.1-1,0.3-1.4c0.1-0.4,0.5-0.7,0.6-1c0.3-0.6,0.4-1.4,0.6-2
        s0.5-1.2,0.8-1.8c0.1-0.1,0-0.3,0.1-0.5s0.3-0.4,0.4-0.6s0.2-0.5,0.3-0.7s0.3-0.4,0.5-0.6c0.2-0.3,0.3-0.7,0.4-1.1
        c0.3-0.7,0.8-1.3,1.1-2c0.1-0.1-0.1-0.3,0.1-0.5c1.2-1.6,2-3.6,4-4.4c0.5-0.6,1.3-0.8,2-1C97.1,5.1,97.7,5.3,98.2,5.6L98.2,5.6z"></path>
    <path class="mdv" d="M77.6,22.6c-1.1,0.1-2,0.4-3.1,0.6c-0.6-0.6-0.3-2.1-1.3-2.3c-0.4-0.1-0.7,0.2-1.1,0.1c-0.4,0.3-0.9,0.8-1,1.5
        c-0.1,0.8,0.2,1.5,0.2,2c1.2,1.4,2.2,3.1,3.4,4.6c0.6,0.7,1.2,1.4,1.7,2.2c0.1,0.2,0,0.2,0.1,0.3c0.7,0.8,1.3,2.2,1.1,4
        c0,0.2-0.2,0.5-0.2,0.7c0,0.3,0,0.6-0.1,0.9c-0.3,0.5-1.1,2-1.6,2.3c-0.3,0.2-0.6,0.2-0.8,0.6c-1.2,0.7-2.3,0.9-3.7,0.6
        c-0.5-0.1-1.2-0.3-1.6-0.6c-0.5-0.4-0.9-1.2-1.1-1.8c-0.1-0.3-0.5-0.5-0.7-0.8c-0.3-0.4-0.3-1-0.6-1.4c0.1-0.4-0.1-0.5-0.1-0.9
        c1-0.3,2.1-0.7,3.1-1c0.7,0.8,0.8,2.2,1.7,2.7c1.5,0.2,2.6-1.2,2-2.6c-0.4-0.9-1.1-1.8-1.8-2.8c-1.1-1.7-2.3-3.4-3.7-4.8
        c-0.1-0.4-0.3-0.7-0.5-1c-0.2-1.3-0.5-2.9-0.1-4.2c0.5-2,1.8-3.3,3.8-4c0.1-0.1,0.1,0.1,0.3,0.1c0.7-0.3,1.4,0,2,0.2
        c0.2,0.1,0.5,0,0.7,0.1c0.9,0.3,1.4,1.2,2,1.7C77.1,20.6,77.5,21.5,77.6,22.6z M69.7,23.4c0-0.1-0.1-0.4,0.1-0.6
        c-0.1,0-0.1-0.1-0.2-0.1C69.5,23,69.3,23.3,69.7,23.4z"></path>
    <path class="mdv" d="M104.9,40.7c-0.3-0.1-0.6,0.2-0.9,0.2c-0.2,0-0.3-0.2-0.5-0.2c-0.7,0-1.8,0.5-2.1-0.3v-0.8c-0.1-1.2,0-3.7,0-5
        c0-2.7-0.1-5.4,0-7.7c-0.5,0.9-0.5,1.9-0.8,2.9c-0.2,0.6-0.5,1.3-0.6,1.9c-0.5,2-0.8,4.2-1.3,6.3c-0.1,0.2-0.2,0.5-0.3,0.7
        c0.1,0.4,0,0.8-0.2,1.1v0.6c-0.8,0.2-1.1,0.5-1.7,0.1c-0.2-0.7-0.2-1.6-0.5-2.3c-0.6-3.9-1.6-7.6-2.5-11c-0.1,2,0.1,4,0.1,6.2
        c0,2,0,3.5-0.1,5.6c0,0.5,0.1,1,0,1.3s-0.3,0.5-0.5,0.6c-1.2-0.2-1.9,0-2.8-0.2c-0.1-0.3-0.2-0.7-0.4-1c0.2-0.3,0.3-1,0.1-1.3
        c0.3-3.9,0.3-7.8,0.2-11.5v-1.8c0-0.5-0.2-1-0.2-1.4c0-0.3,0.1-0.7,0.2-1c0.1-1.1,0-2-0.1-3c0-0.8,0.3-1.1,0.6-1.6
        c1.3-0.2,4-0.5,4.4,0.6c0.7,4.3,1.2,8.8,2.3,12.9c0.5-2.1,1.2-4.9,1.6-7.4c0.2-1.1,0.2-2.2,0.4-3.3c0.1-0.9,0.4-1.7,0.5-2.6
        c0.4-0.3,0.9-0.4,1.4-0.7c1.2-0.1,2.1,0.1,2.9,0.3c0.3,0.2,0.3,0.7,0.6,0.9c0,1.1,0.2,2.1,0.3,3.2c0,0.6-0.2,1.1-0.2,1.7
        c-0.1,1,0,2,0,3c-0.1,2,0,4,0,6.1c0,0.9-0.1,1.9,0,2.8c0,0.4,0.2,1,0.3,1.4c0.1,0.9-0.2,1.8,0.1,2.6
        C105.1,40.1,104.9,40.3,104.9,40.7z M101.2,21c0.1,0,0.1,0.1,0.3,0.1c0.1-0.1,0.1-0.5-0.2-0.5C101.3,20.8,101.2,20.8,101.2,21z"></path>
    <path class="mdv" d="M137,22.7c-0.9,0.1-1.9,0.4-2.9,0.6c0.1-0.5-0.4-0.4-0.3-1c-0.3-0.4-0.6-1.1-1.2-1.2c-0.4-0.1-0.7,0.2-1,0.1
        c-0.6,0.4-0.7,0.9-1,1.5v0.8c0,0.2,0.1,0.2,0.2,0.3c-0.1,1,0.6,1.5,1.2,2.3c0.8,1,1.5,2.3,2.4,3.2c0.2,0.3,0.6,0.5,0.8,0.7
        c0.4,0.4,0.4,1,0.9,1.3v0.3c0.3,0.4,0.7,0.6,0.8,1.1v0.7c0.1,0.5,0.3,1,0.4,1.5c0,0.5-0.1,1-0.2,1.5c0,0.2,0,0.5-0.1,0.7
        s-0.2,0.1-0.3,0.3c-0.1,0.1,0,0.3-0.1,0.4c-0.3,0.6-1,1.5-1.2,1.7c-0.1,0.1-0.3,0.1-0.5,0.2c-0.6,0.4-1.2,1-2.1,1
        c-0.1,0,0,0.2-0.2,0.2c-0.4,0-0.9,0.1-1.1-0.2c-0.9,0-1.5-0.3-2.1-0.5c-1.2-1.3-2.3-2.8-2.6-4.9c1-0.4,2.1-0.7,3.2-1.1
        c0.7,0.9,0.7,3.4,2.6,3c0.7-0.1,1.3-1.5,1-2.6c-0.1-0.3-0.3-0.5-0.5-0.8c-1-1.9-2.6-3.9-3.9-5.5c-0.2-0.2-0.4-0.5-0.6-0.8
        c-0.4-0.5-0.7-0.8-0.9-1.4v-0.4c0-0.3-0.2-0.4-0.3-0.6v-0.4c-0.1-0.3-0.3-1.5-0.2-2c0-0.2,0.1-0.5,0.1-0.8c0-0.2,0.2-0.3,0.3-0.5
        c0.2-0.7,0.4-1.4,0.9-2.1c0.6-0.7,1.8-1.5,2.6-1.7c0.7-0.1,1.4-0.2,2.2,0c0.1,0.1,0.2,0.1,0.3,0.2c1.9,0.1,3.3,2.3,3.4,4.2
        C136.8,22.4,137,22.5,137,22.7L137,22.7z"></path>
    <path class="mdv" d="M176.1,22.7c-0.9,0.1-1.9,0.4-2.9,0.6c0.1-0.5-0.4-0.4-0.3-1c-0.3-0.4-0.6-1.1-1.2-1.2c-0.4-0.1-0.7,0.2-1,0.1
        c-0.6,0.4-0.7,0.9-1,1.5v0.8c0,0.2,0.1,0.2,0.2,0.3c-0.1,1,0.6,1.5,1.2,2.3c0.8,1,1.5,2.3,2.4,3.2c0.2,0.3,0.6,0.5,0.8,0.7
        c0.3,0.4,0.4,1,0.9,1.3v0.3c0.3,0.4,0.7,0.6,0.8,1.1v0.7c0.1,0.5,0.3,1,0.4,1.5c0,0.5-0.1,1-0.2,1.5c0,0.2,0,0.5-0.1,0.7
        s-0.2,0.1-0.3,0.3c-0.1,0.1,0,0.3-0.1,0.4c-0.3,0.6-1,1.5-1.2,1.7c-0.1,0.1-0.3,0.1-0.5,0.2c-0.6,0.4-1.2,1-2.1,1
        c-0.1,0,0,0.2-0.2,0.2c-0.4,0-0.9,0.1-1.1-0.2c-0.9,0-1.5-0.3-2.1-0.5c-1.2-1.3-2.3-2.8-2.6-4.9c1-0.4,2.1-0.7,3.2-1.1
        c0.7,0.9,0.7,3.4,2.6,3c0.7-0.1,1.3-1.5,1-2.6c-0.1-0.3-0.3-0.5-0.5-0.8c-1-1.9-2.6-3.9-3.9-5.5c-0.2-0.2-0.4-0.5-0.6-0.8
        c-0.4-0.5-0.7-0.8-0.9-1.4v-0.4c0-0.3-0.2-0.4-0.3-0.6v-0.4c-0.1-0.3-0.3-1.5-0.2-2c0-0.2,0.1-0.5,0.1-0.8c0-0.2,0.2-0.3,0.3-0.5
        c0.2-0.7,0.4-1.4,0.9-2.1c0.6-0.7,1.8-1.5,2.6-1.7c0.7-0.1,1.4-0.2,2.2,0c0.1,0.1,0.2,0.1,0.3,0.2c1.9,0.1,3.3,2.3,3.4,4.2
        C176,22.4,176.1,22.5,176.1,22.7L176.1,22.7z M168.1,22.6c0-0.2,0-0.3,0.1-0.5H168C168.1,22.3,167.9,22.6,168.1,22.6L168.1,22.6z
         M168.5,25.7c0-0.9-0.6-1.8-0.4-2.9h-0.2C168,23.5,168,25.2,168.5,25.7L168.5,25.7z M167.9,36v-0.3h-0.3
        C167.7,35.9,167.7,36.1,167.9,36z M168.9,37.8v-0.2h-0.2C168.7,37.8,168.7,37.8,168.9,37.8z"></path>
    <path class="mdv" d="M65.6,18.7c0,0.2,0.1,0.9-0.1,2.1c-1.1,0.5-3.7,0-5.5,0.4c0.2,1.9,0,3.8-0.1,6.2c0.2,0.2,0.6,0.2,0.9,0.2
        c0.6,0,1.3-0.1,1.9-0.2c0.3,0,0.7-0.3,0.9-0.2c0.2,0,0.6,0.4,0.7,0.7c0.1,0.4-0.1,0.9,0,1.3c0,0.2,0.2,0.3,0.3,0.5
        c-0.1,0.2-0.1,0.1-0.1,0.4c-0.3,0-0.5,0.1-0.7,0.4c-1.4,0-2.8,0.1-3.8,0.1c-0.1,2,0,4.3,0.3,6.2c0,0.2-0.2,0.1-0.2,0.4
        c0.4,0.2,1.1,0.1,1.7,0.2c0.8,0,1.7,0,2.5-0.1c0.4,0,0.8-0.1,1.2-0.1c0.4,0.1,0.5,0.6,0.8,0.8c-0.2,0.8,0.4,1.9-0.2,2.6
        c-1.3,0.2-3.2-0.3-4.8,0c-0.5,0.1-1.5,0.2-2.1,0.2s-1.6,0.1-2.3-0.2c-0.1-0.3-0.2-0.7-0.5-0.9c0-0.3,0.2-0.6,0.3-0.9
        c-0.1-1.3-0.2-2.8-0.2-4.3c0-0.1-0.2-0.1-0.2-0.3c0.1-0.4-0.1-0.8,0.2-1c-0.2-3-0.2-6.3,0-9.4c-0.3-0.5-0.2-1.3-0.4-1.8
        c0.4-1.4-0.5-2.7-0.1-4c0.2-0.2,0.6-0.3,0.8-0.5c0.9,0.4,2.5,0.1,3.9,0.2c0.5,0,0.9,0.1,1.4,0.1c1-0.1,2-0.3,2.8,0
        C65.8,17.9,65.4,18.5,65.6,18.7z M63.6,19.4c0-0.1,0.1-0.1,0.1-0.2c-0.2,0.1-0.1-0.1-0.3-0.1C63.4,19.3,63.5,19.3,63.6,19.4z
         M58.3,21.6c0.1-0.3,0.1-0.6-0.1-1H58C58,21,58.2,21.3,58.3,21.6z M61.9,38.5c0,0.1,0,0.1,0.1,0.2c0.1,0,0.1-0.1,0.2-0.1
        C62.2,38.4,62,38.4,61.9,38.5z M62.3,38.5c0.1,0.3,0.7,0.2,1.2,0.2s1,0.2,1.2-0.1C64,38.4,63,38.7,62.3,38.5z"></path>
    <path class="mdv" d="M124.1,18.1c0.4,2.4,0.2,5,0.2,7.7c0,3.3,0,6.7,0.1,9.8c0,0.3,0.1,0.6,0.2,0.9c0.1,1.3,0,2.4-0.1,3.4
        c0,0.4,0.4,0.3,0.3,0.6c-0.1,0.4-1.2,0.3-2,0.3c-0.9,0-1.5,0-1.9-0.1c-0.3-0.2,0-0.4,0.1-0.6c-0.4-0.6-0.2-2.1-0.2-3.1
        c0-0.9-0.1-1.9,0-2.7c0-0.3,0.1-0.6,0.1-1c-0.4-5.1-0.1-9.9-0.1-15.1C121.3,17.8,123.2,17.8,124.1,18.1z M122,18.9
        c0.1,0.5,0.4,1,0.3,1.7c0.4,0.2-0.1,0.9,0.3,1.1c-0.1-0.6,0.1-2-0.2-2.4v-0.4C122.2,19,122.1,18.8,122,18.9z M122.6,34.4
        c0.2-0.5-0.2-1,0-1.5c-0.1,0-0.1,0-0.2-0.1C122.4,33.4,122.3,34.3,122.6,34.4z"></path>
    <path class="mdv1" d="M112.9,19c0.2,0.4,0.3,0.8,0.4,1.3c-0.2,0.1,0-0.2-0.2-0.2c0.1-0.5-0.3-0.9-0.4-1.1
        C112.7,19,112.8,18.9,112.9,19z"></path>
    <path class="mdv1" d="M113.2,21.4h0.4c-0.1,0.2-0.2,0.1-0.4,0.2V21.4z"></path>
    <path class="mdv1" d="M111.4,22.8c0,0.8-0.3,2-0.4,3c-0.1,0.1-0.1,0.3-0.4,0.3C111,24.9,111,23.8,111.4,22.8z"></path>
    <path class="mdv1" d="M47.7,26.6c0.2,0,0.2,0.6,0,0.6C47.7,26.9,47.6,26.7,47.7,26.6z"></path>
    <path class="mdv1" d="M110.6,26.8c0.3,0.1,0.2,0.2,0.1,0.4C110.5,27.2,110.6,27,110.6,26.8z"></path>
    <path class="mdv1" d="M112.6,26.8h0.2c0.3,1.9,0.7,3.8,1,5.7c-0.8,0.1-1.4,0-2.2,0C111.9,30.7,112.4,28.9,112.6,26.8z"></path>
    <path class="mdv1" d="M47.7,27.2c0.2-0.1,0.2,0.4,0,0.4V27.2z"></path>
    <path class="mdv1" d="M47.7,27.7c0.2-0.1,0.2,0.3,0,0.3V27.7z"></path>
    <path class="mdv1" d="M110,31.2c0.2,0,0.1,0.3,0.1,0.3C109.9,31.5,109.9,31.2,110,31.2z"></path>
    <path class="mdv1" d="M148.1,33v0.2C147.9,33.2,147.9,32.9,148.1,33z"></path>
    <path class="mdv1" d="M148,34c0.1,0.1,0.2,0.5-0.1,0.6C148,34.4,148,34.2,148,34z"></path>
    <path class="mdv1" d="M148,35.2c0.1,0,0.1,0,0.2,0.1c0,0.1-0.1,0.1-0.1,0.2C148,35.4,148,35.3,148,35.2L148,35.2z"></path>
    <path class="mdv1" d="M148,35.5c0.2,0.1,0,0.1,0,0.2c0,0.5,0.1,1.4-0.2,1.7C147.7,36.9,147.9,36.1,148,35.5z"></path>
    <path class="mdv1" d="M62.2,38.6c-0.1,0-0.1,0.1-0.2,0.1c0,0-0.1-0.1-0.1-0.2C62,38.4,62.2,38.4,62.2,38.6z"></path>
    <path class="mdv" d="M36.6,39.3c0.2,0.3,0.1,0.9,0,1.1c-0.1,0.3-0.3,0.6-0.5,0.9c-0.5,0.9-1.1,1.8-1.6,2.7c-0.2,0-0.2,0.3-0.4,0.2
        c0.1,0.4-0.6,1.3-1,2.1c-0.3,0.6-0.7,1.2-1,1.7c-1.4,2.3-2.4,4.9-3.4,7.4c-0.5,1.3-1,2.5-1.7,3.7c-0.3,1.1-0.8,2.1-1.1,3.2
        c-0.7,2.1-1.5,4.2-2.1,6.5c-0.1,0.6-0.3,1.2-0.4,1.8c-0.1,0.5-0.4,1-0.6,1.5c-0.2,0.7-0.3,1.5-0.4,2.2c-0.1,0.8-0.3,1.6-0.3,2.3
        c0,0.5,0.3,1-0.1,1.4c-0.9,0.4-2.2,0.6-2.9-0.1c-0.8-0.7-0.6-2.1-0.3-3.2c-1.9,1.3-5,2.5-8.6,2.2c-2-0.2-3.8-1.7-3.6-4.3
        c0.2-2.1,1-3.4,1.9-4.8C9,67.1,9.4,66.6,9.8,66c0.8-1.2,1.6-2.4,2.5-3.3c0.7-0.7,1.5-1.1,2-1.9c1.3-0.5,1.6-1.9,3.1-2.1
        c1.1-1,3.4-2.3,5.5-1.5c0.6,0.2,1,0.7,1.3,1.3c0.9-1.6,1.5-3.5,2.4-5.3c0.6-1.1,0.9-2.3,1.8-3c0.2-0.8,0.8-1.7,1.3-2.5
        c0.8-1.4,1.4-3,2.5-4.1c0.2-0.6,0.5-1.2,1-1.5c0.5-0.9,1.5-1.6,2.3-2.3C35.8,39.5,36,39,36.6,39.3z M20.4,68.5
        c1.1-1.2,2.1-3.8,2.2-6.1V62c0-0.4,0-0.9-0.1-1.3c-0.3-1.6-2.2-0.8-3-0.3c0,0.5-0.3,0.6-0.7,0.6c-0.5,0.4-1,0.8-1.5,1.3
        c-0.5,0.4-1,0.8-1.4,1.4c-0.1,0.1-0.1,0.3-0.2,0.4c-0.3,0.5-0.7,0.4-1.3,0.6c-0.1,0-0.6,0.3-0.8,0.4L13,65.7
        c-0.2,0.2-0.5,0.3-0.7,0.5c-0.5,0.5-0.7,1.2-1.3,1.4c0.1,0.2-0.2,0.3-0.1,0.6c-0.2,0.3-0.5,0.6-0.7,1c-0.5,0.9-1.4,3.9-0.8,4.8
        c0.7,1.2,2.5,0.5,3.6,0.1c1.4-0.5,2.5-1.1,3.6-2c0.5-0.4,1.2-0.9,1.5-1.2c0.7-0.6,1.3-1.9,2.2-1.9C20.4,68.9,20.4,68.7,20.4,68.5z"></path>
    <path class="mdv" d="M92,54.4c-0.2-0.1-0.4,0.2-0.5,0.3c-0.3,0.3-0.6,0.4-1.2,0.6c-0.5,0.2-0.8,0.5-1.2,0.5s-0.9-0.4-1.1-0.6
        c-0.2-0.3-0.3-1.1-0.2-1.5s0.5-0.7,0.5-1.1c1-1,2.1-1.9,3.6-2.4c0.2,0.1,0.7,0.1,0.9,0c0.4,0.3,0.8,0.5,1.2,0.8
        c0.5,0.6,0.9,1.5,1,2.6c0,0.4,0.1,1-0.2,1.3c0.3,0.4,0.2,1.6,0.2,2.4c-0.1,0.9-0.5,1.9-0.7,2.8c-0.1,0.9-0.5,1.5-0.8,2.3
        c-0.5,1.3-1,2.3-1.8,3.3c-0.4,0.5-0.7,1-1.1,1.4s-1.4,1.1-2,1.5L88,69.2c0,0-0.5,0.3-0.8,0.5c-2,1.4-5.9,3.7-9.4,2.3
        c-1.9-0.8-2.8-3-2.4-6c0.1-1,0.5-2.1,0.8-3c0.4-0.9,0.9-1.8,1.1-2.6c0.6-0.4,0.8-1.1,1.2-1.6c1.3-1.7,2.5-3.5,4.2-5.1
        c0.4-0.3,1.4-1.7,1.9-1.9c1.3-0.5,2.4,0.6,2.4,1.6c0,0.2-0.1,0.7-0.3,1c-0.3,0.8-1,1.4-1.6,1.9c-0.3,0.3-0.6,0.7-0.9,1
        c-0.6,0.7-1.2,1.4-1.8,2.1c-0.6,0.6-1.2,1.4-1.6,2.2c-0.7,1.2-1.2,2.1-1.6,3.5c-0.1,0.3-0.3,0.6-0.4,0.9c-0.3,1.5-0.4,3,1.6,2.8
        c0.3,0,0.7-0.1,1.1-0.2c2.6-0.7,5.2-2.5,6.7-4.3c0.3-0.4,0.6-0.9,0.9-1.3s0.8-0.9,1-1.2c0.3-0.5,0.5-1.1,0.7-1.6s0.5-1,0.5-1.7
        c0.5-0.5,0.4-1.6,0.6-2.6C92,55.4,92.3,54.8,92,54.4L92,54.4z"></path>
    <path class="mdv" d="M76.1,115.3c-0.3,0-0.6,0.1-0.8,0c-0.6-0.5,0-1.6-0.1-2.2c0-0.2,0.3-0.2,0.4-0.4c0.2-0.9,0.4-1.8,0.8-2.5
        c0.2-0.4,0.7-0.7,1.1-1.1c0.3-0.3,0.4-0.7,0.6-1c1-1.3,2.2-2.3,2.4-4.2c0.7-0.5,1.2-1.1,1.6-1.9c1-0.6,1.5-1.7,2.3-2.5
        c0.3-0.3,0.6-0.5,0.9-0.7c0.5-0.5,1-1.3,1.5-2.1c2.4-3.6,4.9-7,7.5-10.4c0.8-1.1,1.3-2.1,2.1-3.2c0.1-0.2,0.2-0.3,0.4-0.5
        c0.3-0.5,0.5-0.7,0.9-1.1c1.3-1.1,2.3-2.6,2.8-4.5c0.8-0.4,0.9-1.4,1.3-2.1c0.2-0.4,0.7-0.7,1-1c0.6-0.7,0.8-1.5,1.3-2.3
        c0.3-0.5,0.8-0.9,1.2-1.4c0.6-0.8,0.9-1.6,1.4-2.4c-1.4,0.5-3.1,1.8-4.9,1.3c-2.3-0.5-3.5-2.6-3.3-5.8c0.1-1.4,0.3-3.3,0.7-4.2
        c0.1-0.3,0.5-0.5,0.4-0.9c0.5-0.6,1.2-1.6,1.8-2.2c0.2-0.2,0.4-0.2,0.7-0.2c0.6,0.6,1.1,0.8,1.4,1.5c0.2,0.5,0.2,0.8-0.1,1.5
        c-0.1,0.4-0.2,0.8-0.3,1.1s-0.4,0.6-0.6,0.9c-0.4,0.9-1.4,3.3-0.5,4.1c1,0.1,1.6-0.5,2.4-1c1.7-1,3.5-2.4,4.8-3.6
        c1.5-1.3,2.9-2.7,4.2-4.2c0.8-1,1.7-1.9,2.1-3.2c0.5-0.3,0.5-0.9,0.8-1.4c0.4-0.6,1.4-1.5,2.5-0.9c0.5,0.3,0.4,0.8,0.7,1.4
        c0.2,0.4,0.5,0.6,0.5,1.1c0,0.3-0.3,0.5-0.4,0.8c-0.2,0.6-0.2,1.1-0.5,1.7c-0.7,1.4-1.6,2.8-2.6,4.1c-0.5,0.7-1.1,1.4-1.4,2.2
        c-0.6,0.4-0.9,1-1.1,1.8c-0.5,0.4-0.7,1-1.1,1.5c-0.7,1.1-1.3,2.2-2.1,3.3c-0.5,0.6-1,1.2-1.2,1.9c0,0.1-0.2,0.1-0.3,0.2
        c-0.5,0.6-0.9,1.3-1.4,1.9s-1.1,1.1-1.3,1.9c-0.3,0.1-0.3,0.4-0.5,0.5c0.1,0.3-0.2,0.3-0.1,0.6c-0.1,0.1-0.2,0.1-0.3,0.2
        c-0.6,1.4-1.5,2.6-2.5,3.6c0,0.2-0.1,0.3-0.1,0.5c-0.2,0.1-0.2,0.3-0.5,0.3c-0.2,0.5-0.9,0.8-0.9,1.3c-0.6,0.1-0.7,0.7-1.2,0.9
        c0.1,0.3-0.3,0.3-0.2,0.5c-0.2,0.1-0.3,0.2-0.4,0.3c0.1,0.6-0.4,1-0.8,1.2c-0.4,0.6-0.6,1.3-1,1.8c-0.2,0.2-0.5,0.3-0.7,0.6
        c-0.1,0.2-0.3,0.5-0.5,0.8s-0.6,0.6-0.6,1.1c-0.2,0-0.2-0.1-0.3,0c-0.4,0.8-1.1,1.3-1.5,2c0,0.1-0.2,0.1-0.3,0.2
        c-1.5,2.2-2.9,4.8-4.9,6.4c-0.2,0.5-0.6,0.9-0.8,1.4c-2.9,3.1-5.5,6.6-8.3,9.9c-0.7,0.8-1.3,1.7-2,2.6c-0.2,0.3-0.5,0.6-0.5,0.9
        C77,112.6,77,114.5,76.1,115.3L76.1,115.3z"></path>
    <path class="mdv" d="M134.4,65.5c0.4,0.4,1.2,0.6,1.4,1.2c0.3,0.7-0.2,1.4-0.7,1.8c-2.4-0.2-3.4-1.7-4.3-3.2
        c-1.8,1.4-3.6,3.2-5.8,4.2c-1.4,0.6-3.4,0.9-4.5-0.2c-0.8-0.7-1.2-2.3-1.2-3.9c0-1.1,0.5-2.6,1.1-3.7c0.3-0.6,0.7-1,1.1-1.6
        c1.5-2.5,4.2-4.7,6.4-6.7c1.3-1.2,3.3-2.8,5.4-2.9c1.5-0.1,2.2,0.6,2.6,1.9c0.1,0.3,0.3,0.8,0.2,1c-0.2,0.8-2.1,0.7-2.6,0.9
        c-1,0.3-2.3,1.3-3.3,2c-2,1.4-3.8,3.4-5.5,5.2c-0.3,0.3-0.6,0.7-0.9,1.1s-0.5,0.8-0.8,1.2c-0.2,0.4-1.2,1.9-0.7,2.4
        c0.4,0.3,1.4-0.1,1.9-0.4c2.7-1.2,4.5-3.6,6.1-6c0.3-0.5,1.5-2.5,2.7-2c1,0.5,0.1,3.5,0,4.5C133.1,63.8,133.8,64.7,134.4,65.5
        L134.4,65.5z"></path>
    <path class="mdv" d="M147.7,67.8c-1.5,0.9-4.5,1.7-5.7-0.1c-0.6-0.9-0.8-3-0.3-4.3c0.3-0.7,0.8-1.4,1.3-2.2c0.9-1.4,2-2.4,3.1-3.7
        c1.1-1.2,1.9-2,3.3-3c1.3-0.9,3-1.7,4.6-2.2c0.3-0.4,0.3-0.9,0.7-1.1c0.7-0.5,1.8-0.1,2.3,0.5c0.1,0.8,0.4,1.5,0.3,2.4
        c-0.4,3.4-2.1,6.8-3.2,9.5c-0.2,0-0.2,0.3-0.5,0.3c0,0.2,0.1,0.3,0.1,0.5c-0.9,1.9-2,3.7-3,5.6c-0.5,0.9-0.8,1.8-1.6,2.4
        c-0.1,0.2,0.1,0.3,0,0.5c-2.4,3.9-4.8,7.2-7,11.3c-0.2,0.1-0.2,0.1-0.4,0.1v0.5c-1.3,1.4-2.2,3.1-3.3,4.7c-0.4,0.5-0.8,1-1.2,1.4
        c-0.2,0.7-0.8,1.2-1.3,1.8l-1.2,1.2c-0.7,0.7-1.2,1.7-2,2.5s-1.4,1.6-2.1,2.4c-1.4,1.7-2.8,3.2-4.3,4.6c-0.2,0-0.2,0-0.4-0.1
        c0.1,0.3-0.1,0.2-0.1,0.6c-0.6,0.7-1.7,1.5-2.6,2.1c-1.1,0.7-2.3,0.7-2.1-0.8c0.4-1.3,1.9-1.3,2.8-2.1l1.9-1.9
        c0.2-0.2,0.3-0.5,0.5-0.7c0.4-0.4,0.9-0.7,1.3-1.1s0.5-1.1,0.9-1.5c0.1-0.2-0.1-0.3,0.1-0.5c0.4-0.4,0.6-0.9,1.2-1
        c0.2-0.7,0.8-1.2,1.2-1.7c0.1-0.4,0.2-0.8,0.5-1.1c0.3-0.4,0.9-0.5,1.2-0.8s0.5-0.8,0.8-1.2c1.9-2.6,4.3-5.2,5.9-8.1
        c0.3-0.9,0.7-1.6,1.1-2.4c0.4-0.7,1-1.4,1.3-2.1c0.2-0.4,0.1-0.8,0.3-1.2c0.2-0.5,0.7-1,1-1.5s0.5-1.2,0.8-1.7c0.6-1,1.4-1.9,2-3
        c0.3-0.5,0.6-1.1,0.9-1.6c0.4-0.7,0.9-1.2,1-2.1C147.7,67.9,147.7,67.9,147.7,67.8L147.7,67.8z M149.2,59.7c-1.5,1.3-2.9,3-3.3,5
        c2.4-0.9,3.6-3,5-5c0-0.5,0.3-0.9,0.2-1.3C150.5,58.7,149.8,59.3,149.2,59.7z"></path>
    <path class="mdv" d="M165.8,61.6c0.3,1.4,1,2.2,2.3,2.7c2.4,0.9,6.3,0.8,9.5,0.7c1.6-0.1,3.2-0.2,4.8-0.4c0.7-0.1,1.5-0.3,2.2-0.4
        c0.8-0.1,1.7,0,2.4-0.2c0.8-0.1,1.8-0.4,2.7-0.6c1-0.2,2-0.3,2.8-0.5s1.6-0.6,2.5-0.7c2.7-0.5,5.3-1.2,7.9-1.8
        c1.8-0.4,3.5-0.8,5.4-1.1c1.7-0.3,3.5-0.8,5.3-1c1.7-0.2,3.4-0.2,5.1-0.3c0.5,0,1.1-0.2,1.6-0.2c0.7,0,1.4,0.3,2.2,0.5
        c0.7,0.1,1.7,0.4,1.5,1.1c0,0.1-0.2,0.5-1.1,0.7c-1.5,0.3-2.9,0.4-4.6,0.6c-1.1,0.1-2.2,0.4-3.3,0.5s-2.2,0.4-3.2,0.6
        c-2.2,0.3-4.4,0.6-6.5,1c-6.4,1.2-12.9,2.3-19.3,3.5c-2.2,0.4-4.5,0.6-6.6,1c-5,1-12.2,0.9-15.5-1.5c-0.8-0.6-1.3-1.3-1.9-2.1
        c-0.4-0.6-0.5-0.9-0.6-2c0-0.5-0.2-0.9-0.1-1.3c0.1-0.3,0.3-0.5,0.5-0.8c0.1-0.3,0.2-0.7,0.4-0.9c0.3-0.6,0.7-1.2,1-1.6
        c0.7-0.8,1.6-1.8,2.7-2.5c1.5-1,3.5-1.9,5.6-2.3c0.8-0.1,1.7,0,2.3,0.4c0.8,0.7,0.9,2.4,0.4,3.4C173,59.1,168.6,60.3,165.8,61.6
        L165.8,61.6z M170.7,55c-2,0.6-3.7,1.8-4.5,3.5c1.1-0.6,2.6-1.1,3.4-1.9C170.2,56.1,170.9,55.8,170.7,55C170.8,55,170.8,55,170.7,55
        z"></path>
    <path class="mdv" d="M43.7,57.5c0,1.4-1,3.1-1.5,4.3c-1.3,3.1-2.7,5.7-3.6,9.2c-0.3,1-0.8,2-0.7,3.2c0.1,0.6,0.4,1.3,0.2,2
        c-0.2,0.6-0.9,0.7-1.9,0.7c-2-0.8-1.1-4.2-0.6-6c-0.6,0.4-1.3,1-2,1.5c-1,0.7-2.1,1.8-3.5,2c-2.5,0.3-3.8-1.1-3.9-3.3
        c0.3-2,1-3.5,1.7-5c0.1-0.1,0.3-0.1,0.4-0.2c0-0.6,0.6-1,0.8-1.6l0.3-0.3c0.5-0.8,0.6-1.9,1.4-2.3c0-0.3,0.3-0.5,0.5-0.7
        c0.5-0.6,0.9-1.4,1.5-2c0.1-0.1-0.1-0.2,0.1-0.4c0.4-0.4,1-0.7,1.8-0.5c0.4,0.7,0.3,1.6,0.1,2.4c-0.1,0.4-0.5,0.6-0.4,1
        c-0.9,1.1-1.6,2.6-2.4,4.1c-0.6,1-1.2,2-1.7,3c-0.4,0.9-0.7,2.1-0.6,3.2c1.7-0.5,3-1.7,4.2-2.8c0.9-0.9,1.6-1.9,2.4-2.9
        c0.2-0.3,0.5-0.6,0.6-1c0.1-0.1,0.2,0.1,0.3-0.1c1.4-2.4,2.7-4.9,4.2-7.2c0.4,0,0.8-0.7,1.3-0.8C43,56.9,43.4,57.1,43.7,57.5z"></path>
    <path class="mdv" d="M118.5,40.7c-0.3,0.2-1.3,0.2-1.5-0.1c-0.5,0.2-1.2,0.1-1.6,0.3c-0.3-0.1-0.4-0.4-0.6-0.7
        c0.3-1.7-0.6-2.9-0.6-4.6c-1,0-2.2,0.3-3,0.1c-0.4,1.5-0.4,3-0.9,4.5c-0.1,0.3,0.2,0.4,0.1,0.6c-1.1-0.1-2.3,0.3-3.4-0.1
        c-0.2-1,0.4-1.8,0.6-2.6c0.4-1.6,0.5-3.3,0.8-4.9c0.6-3.1,1.2-6.3,1.9-9.5c0.4-1.9,0.7-3.6,1-5.6c0.5-0.4,1.7,0,2.1-0.2
        c0.2,0.1,0.7,0.1,0.9,0.1s0.3,0.2,0.5,0.3c0.3,1,0.5,2,0.7,3.1c0.3,3,0.8,6.1,1.4,9.2s1,6.2,1.6,9C118.4,40,118.6,40.3,118.5,40.7z
         M112.7,19c0.1,0.2,0.5,0.5,0.4,1.1c0.2-0.1,0,0.2,0.2,0.2c0-0.5-0.2-0.9-0.4-1.3C112.8,18.9,112.7,19,112.7,19z M113.2,21.6
        c0.2-0.1,0.3,0,0.4-0.2h-0.4V21.6z M110.7,26.1c0.2,0,0.2-0.2,0.4-0.3c0-1,0.3-2.2,0.4-3C111,23.8,111,24.9,110.7,26.1z M110.7,27.2
        c0.1-0.2,0.2-0.4-0.1-0.4C110.6,27,110.5,27.2,110.7,27.2z M111.5,32.5c0.8,0,1.5,0.1,2.2,0c-0.3-1.9-0.7-3.8-1-5.7h-0.2
        C112.4,28.9,111.9,30.7,111.5,32.5z M110,31.5c0,0,0.1-0.4-0.1-0.3C109.9,31.2,109.9,31.5,110,31.5z"></path>
    <path class="mdv" d="M49.7,36.6c0.1,0.2,0.2,0.4,0.2,0.8c1.3,0.1,3.3-0.1,5.1,0c0.1,0.3,0.6,0.4,0.7,0.8c0.1,0.2-0.1,0.5-0.1,0.8
        c0,0.2-0.1,0.5-0.1,0.6c0,0.2,0.3,0.3,0.3,0.5c0,0.4-0.3,0.5-0.3,0.8c-0.4,0.1-0.9,0.1-1.4,0c-1.3-0.2-2.8-0.1-4.1-0.1
        c-1.1,0-2.4-0.2-3.6,0.1c-0.2-0.2-0.5-0.2-0.5-0.5c0-0.2,0.1-0.3,0.3-0.4c-0.3-0.2-0.1-0.8,0.1-1c0.1-1.2-0.3-3.2-0.1-4.3
        c0-0.2,0.2-0.4,0.4-0.5c-0.5-0.3-0.2-1.3-0.4-1.9c-0.1-0.2-0.3-0.5,0-0.7c-0.3-0.5,0-1.3-0.1-1.9c0-0.2-0.2-0.3-0.2-0.4
        c0-0.2,0.1-0.4,0.2-0.5c0-0.2-0.2-0.2-0.2-0.4c0-1.4-0.1-2.7-0.1-4c0-0.8,0-1.5-0.1-2.3c0-0.6-0.1-1.4,0-2c0.1-0.7,0.4-1.2,0.1-1.9
        c0.2-0.2,0.6-0.2,0.7-0.5c0.5,0.3,1.2-0.2,1.8-0.1c0.3,0.1,0.4,0.4,0.7,0.4c0.2,0.2,0.3,0.5,0.5,0.7c0,0.4,0,0.8-0.2,1
        c0.1,1.4-0.2,2.8,0.2,4.3c0.1,0.2-0.2,0-0.1,0.2c0.1,0.5,0.2,1.1,0.1,1.5c0.1,1,0.1,2.5,0.1,3.4c0,0.4,0.2,0.9,0.2,1.3
        c0,0.5,0,1-0.1,1.3c0,0.1-0.2,0.2-0.2,0.4c0,0.1,0.1,0.2,0.1,0.3s-0.2,0.1-0.2,0.2c0,0.2,0.1,0.4,0.2,0.6c-0.1,0.2-0.2,0.6,0.1,0.7
        C49.3,34.7,50.2,36,49.7,36.6z M47.7,27.1c0.2,0,0.2-0.6,0-0.6C47.6,26.7,47.7,26.9,47.7,27.1z M47.7,27.6c0.2,0.1,0.2-0.4,0-0.4
        V27.6z M47.7,28c0.2,0.1,0.2-0.3,0-0.3V28z"></path>
    <path class="mdv" d="M160.2,31.5c0.2-2.1,0.1-4.4,0-6.3c0.2-0.3,0.1-1,0.1-1.5c-0.4-1.2-0.1-3.8-0.5-5c0.1-0.2,0.2-0.2,0.1-0.5
        c0.2-0.1,0.5-0.4,0.8-0.5c0.2,0,1.1,0.3,1.5,0.2c0.2,0,0.4-0.2,0.5-0.2c0.3,0.1,0.4,0.6,0.6,0.7c0,3.6,0.4,6.5,0,9.7
        c-0.1,0.7,0.1,1.7,0.1,2.6c0,1.1-0.1,2.4-0.1,3.7c0,1.4-0.1,2.9-0.1,4.2c0,0.4,0.2,0.7,0.2,1.1s-0.2,0.5-0.3,0.9
        c-0.2,0.1-0.7,0.3-1.2,0.4c-0.5,0-1.5,0.1-1.9-0.1s-0.3-0.7-0.7-1c0-1.1-0.4-2.2-0.7-3.2c-0.9-2.9-1.8-5.7-2.7-9
        c-0.1,0.9,0.1,1.9,0.2,2.8c0,0.4-0.1,0.7-0.1,1.1c0,3.2,0.5,6.3,0.6,8.9c-0.2,0.1,0,0.3-0.2,0.5c-0.7-0.1-2.2-0.2-3.2,0
        c-0.2-0.1-0.3-0.4-0.5-0.6c0.1-1.3,0.2-3,0.1-4.6c-0.1-1.8-0.1-3.5,0-5.3V30c-0.1-2.2-0.2-4.3-0.1-6.4c0.1-1.7,0.2-3.3-0.2-4.8
        c0.1-0.2,0.3-0.4,0.4-0.7c0.7-0.5,1.6,0.1,2.5-0.4c1,0.9,1.3,2.7,1.8,4c0.1,0.4,0.4,0.6,0.5,1c0.1,0.3,0.1,0.7,0.2,1.1
        c0.3,1.3,0.8,2.7,1.1,4c0.3,1,0.6,2,0.9,3C160,31,160.1,31.3,160.2,31.5L160.2,31.5z"></path>
    <path class="mdv" d="M147.3,18.9c0.4,0,1,0.6,1.2,1c0.1,0.3,0.1,0.7,0.3,0.9c0.1,0.2,0.3,0.3,0.3,0.4c0.1,0.4,0.1,0.9,0.2,1.3
        c0,0.1,0.1,0.1,0.2,0.3c0.2,0.5,0.2,1.1,0.2,1.7c0.1,1.3,0,2.8,0.2,4.1c-0.1,1,0.5,2.3-0.3,2.8c0.2,2.7,0.6,6.5-1.2,7.8
        c-0.1,0.2-0.2,0.2-0.2,0.5c-0.8,0.5-1.5,1-2.4,1.4c-0.3,0-0.8,0.1-0.9-0.2c-2.6,0.7-4-1.2-4.8-3c0-0.1-0.1-0.2-0.2-0.4
        c-0.2-0.4-0.2-1-0.4-1.6c0.3-1-0.1-2.3-0.2-3.5c-0.2-2.1,0-4.3-0.1-6.5c0.1-0.1,0.1-0.3,0.2-0.4c-0.3-0.3,0.2-0.8-0.1-1
        c0.1-0.1,0.1-0.2,0.2-0.3c-0.2-2.4,0.3-3.9,1.3-5.1c0.8-0.4,1.6-1.3,2.8-1.4C145.1,17.6,146.6,17.9,147.3,18.9z M142.8,23.9
        c0.4,0.7-0.1,1.5,0.2,2.3c-0.7,0.5,0.3,1.9-0.2,2.7c0.5,1.6-0.1,4.2,0.2,6.3c0.1,0.4,0.3,1.4,0.4,1.6c0.4,0.8,2.1,1.2,2.8,0.3
        c0.1-0.3,0-0.7,0.2-0.9c-0.3-1.2,0-2.1,0-3.7c0-0.2-0.2-0.1-0.2-0.3c0.1-2.5-0.4-6.2,0.1-8.5c-0.2-0.5-0.4-1.1-0.4-1.9
        c-0.2-0.1-0.2-0.3-0.4-0.5c-0.9-0.1-1.2-0.2-2.1-0.1C142.8,21.9,143,22.7,142.8,23.9z M148.1,33.2V33
        C147.9,32.9,147.9,33.2,148.1,33.2z M148,34.6c0.3,0,0.2-0.5,0.1-0.6C148,34.2,148,34.4,148,34.6z M148.1,35.4
        c0-0.1,0.1-0.1,0.1-0.2c-0.1,0-0.1-0.1-0.2-0.1C148,35.3,148,35.4,148.1,35.4L148.1,35.4z M147.8,37.4c0.3-0.3,0.2-1.2,0.2-1.7
        c0-0.1,0.2-0.2,0-0.2C147.9,36.1,147.7,36.9,147.8,37.4z"></path>
    </svg>