<svg viewBox="0 0 24 24"
    xmlns="http://www.w3.org/2000/svg" aria-hidden="true" focusable="false" class="icon filter-item__icon__symbol">
    <path d="M12.43 14.39a5 5 0 0 1-4.98-5.02 5 5 0 1 1 9.97 0 5 5 0 0 1-4.99 5.02Zm0-12.39A7.35 7.35 0 0 0 5.1 9.37a7.35 7.35 0 0 0 7.33 7.37c4.05 0 7.33-3.3 7.33-7.37A7.35 7.35 0 0 0 12.43 2ZM5.48 19.65l.35 1.07h-.82l.34-1.07h.14Zm-.57-.5L4 21.92h.62l.22-.7H6l.22.7h.65l-.95-2.79h-1ZM8.55 22c-.25 0-.47-.05-.65-.14a1.34 1.34 0 0 1-.69-.82 1.45 1.45 0 0 1-.08-.48v-.08a1.48 1.48 0 0 1 .34-.98 1.34 1.34 0 0 1 1.06-.46c.24 0 .47.05.66.14a1.18 1.18 0 0 1 .67.98h-.63a.55.55 0 0 0-.13-.28.63.63 0 0 0-.25-.19.88.88 0 0 0-.67 0 .77.77 0 0 0-.39.47 1.25 1.25 0 0 0 0 .72c.04.1.09.2.15.28a.6.6 0 0 0 .25.18c.1.04.2.07.34.07.2 0 .36-.05.49-.14.13-.1.22-.23.24-.4h.62a1.22 1.22 0 0 1-.65.97c-.2.1-.43.15-.69.15m3.21.01c-.25 0-.47-.05-.65-.14a1.34 1.34 0 0 1-.69-.82 1.45 1.45 0 0 1-.08-.48v-.08c0-.18.02-.35.08-.52a1.3 1.3 0 0 1 .7-.79c.18-.09.38-.13.62-.13s.47.05.66.14a1.18 1.18 0 0 1 .67.98h-.63a.55.55 0 0 0-.13-.28.63.63 0 0 0-.25-.19.88.88 0 0 0-.67 0 .77.77 0 0 0-.39.47 1.25 1.25 0 0 0 0 .72c.04.1.08.2.15.28a.6.6 0 0 0 .25.18c.1.04.2.07.34.07.19 0 .36-.05.49-.14.13-.1.21-.23.24-.4h.62c-.03.2-.1.4-.2.56-.12.17-.26.3-.45.41-.2.1-.43.15-.7.15m1.95-2.86v2.79h1.74v-.52h-1.14v-.63h1.04v-.53h-1.04v-.59h1.11v-.52h-1.71ZM17.03 22c-.25 0-.46-.05-.63-.12a.95.95 0 0 1-.39-.33.86.86 0 0 1-.13-.47h.6c0 .07.02.13.06.2.04.05.1.1.18.15.09.03.19.05.32.05.12 0 .21-.01.29-.04a.5.5 0 0 0 .18-.12.3.3 0 0 0 .06-.2c0-.09-.04-.15-.12-.2a.84.84 0 0 0-.36-.1l-.2-.02c-.28-.02-.5-.1-.67-.26a.76.76 0 0 1-.25-.59c0-.17.04-.33.12-.46.09-.13.2-.23.36-.3a1.48 1.48 0 0 1 1.1 0 .83.83 0 0 1 .48.8h-.6a.39.39 0 0 0-.05-.2.4.4 0 0 0-.15-.14.64.64 0 0 0-.47 0 .41.41 0 0 0-.14.12.3.3 0 0 0-.04.16c0 .08.02.15.08.21s.15.1.27.1l.22.02c.2.02.38.06.54.13a.9.9 0 0 1 .36.29c.1.11.13.26.13.44a.82.82 0 0 1-.53.77c-.16.08-.37.11-.6.11m2.67 0c-.24 0-.46-.05-.63-.12a.95.95 0 0 1-.39-.33.86.86 0 0 1-.13-.47h.6c0 .07.02.13.06.2.05.05.1.1.19.15.08.03.18.05.31.05.12 0 .22-.01.3-.04a.5.5 0 0 0 .17-.12.3.3 0 0 0 .06-.2c0-.09-.04-.15-.11-.2a.84.84 0 0 0-.37-.1l-.2-.02c-.28-.02-.5-.1-.67-.26a.76.76 0 0 1-.25-.59.8.8 0 0 1 .13-.46.8.8 0 0 1 .35-.3 1.48 1.48 0 0 1 1.1 0 .83.83 0 0 1 .49.8h-.6a.39.39 0 0 0-.06-.2.4.4 0 0 0-.15-.14.64.64 0 0 0-.47 0 .41.41 0 0 0-.14.12.3.3 0 0 0-.04.16c0 .08.02.15.08.21s.15.1.27.1l.22.02c.2.02.38.06.54.13a.9.9 0 0 1 .36.29c.1.11.14.26.14.44a.82.82 0 0 1-.54.77c-.16.08-.37.11-.6.11">
    </path>
</svg>