<svg viewBox="0 0 24 24"
    xmlns="http://www.w3.org/2000/svg" aria-hidden="true" focusable="false" class="icon filter-item__icon__symbol">
    <path d="M12 14.4a5.02 5.02 0 1 1 0-10.04 5.02 5.02 0 0 1 0 10.03ZM12 2a7.37 7.37 0 1 0 0 14.75A7.37 7.37 0 0 0 12 2ZM4.6 19.5a1.36 1.36 0 0 0-.46-.33c-.18-.09-.4-.13-.65-.13a1.48 1.48 0 0 0-1.11.46 1.38 1.38 0 0 0-.38.98v.08a1.46 1.46 0 0 0 .37.95 1.43 1.43 0 0 0 1.12.48c.25 0 .48-.04.66-.13a1.4 1.4 0 0 0 .74-.82c.06-.17.1-.33.1-.48v-.08a1.45 1.45 0 0 0-.38-.98Zm-.3 1.37c-.05.1-.1.2-.17.28a.83.83 0 0 1-.63.26.78.78 0 0 1-.8-.54.95.95 0 0 1-.06-.35.95.95 0 0 1 .23-.64.73.73 0 0 1 .26-.18.98.98 0 0 1 .72 0c.1.04.2.1.27.18a.9.9 0 0 1 .23.64.9.9 0 0 1-.06.35Zm3.26-.25a.9.9 0 0 0 .14-.52v-.06c0-.2-.05-.38-.14-.52a.87.87 0 0 0-.4-.32c-.17-.07-.37-.1-.6-.1h-1.1v2.82h.63v-.9h.46l.6.9h.74l-.71-1a.88.88 0 0 0 .38-.3Zm-1.48-.99h.53c.09 0 .17.02.24.06.07.04.12.1.16.16a.6.6 0 0 1 .06.23.44.44 0 0 1-.22.4.54.54 0 0 1-.24.05h-.53v-.9Zm2.85-.5h-.64v2.8h.64v-2.8Zm1.83 1.8h.73v.23a.67.67 0 0 1-.2.16.86.86 0 0 1-.45.11.98.98 0 0 1-.36-.06.76.76 0 0 1-.26-.19.84.84 0 0 1-.17-.29 1.25 1.25 0 0 1 0-.72c.02-.11.07-.2.14-.29a.64.64 0 0 1 .24-.18c.1-.04.21-.07.33-.07.12 0 .24.03.34.07a.61.61 0 0 1 .38.45h.63a1.13 1.13 0 0 0-.67-.97 1.54 1.54 0 0 0-.67-.14c-.24 0-.45.04-.62.13-.18.08-.33.19-.44.33a1.5 1.5 0 0 0-.36.98v.08a1.6 1.6 0 0 0 .36.98 1.35 1.35 0 0 0 1.11.46c.28 0 .53-.05.74-.16.2-.1.37-.25.5-.45v-.47h.23v-.45h-1.54v.45Zm2.69-1.8h-.63v2.8h.63v-2.8Zm2.69 2.29h-.05l-1.06-2.3H14v2.8h.58v-2.29h.06l1.06 2.3h1.03v-2.8h-.59v2.29Zm1.82-2.29-.93 2.8h.64l.22-.7h1.17l.22.7h.65l-.95-2.8h-1.02Zm.09 1.58.34-1.08h.14l.35 1.08h-.83Zm2.85.67v-2.25h-.63v2.8H22v-.55h-1.1Z">
    </path>
</svg>