<svg xmlns="http://www.w3.org/2000/svg" viewBox="0 0 24 24" aria-hidden="true" focusable="false" class="icon filter-item__icon__symbol">
    <path d="M19.17 2.46h-4.6c-.1 0-.13.03-.13.12v.84a5.26 5.26 0 0 0-3.4-1.17c-3.5 0-6.16 2.76-6.16 6.57 0 3.81 2.65 6.57 6.15 6.57a5.2 5.2 0 0 0 3.42-1.2v.78c0 1.75-1.03 2.61-3.01 2.61-.7 0-1.43-.1-2.32-.4-.07-.03-.09-.02-.12.06l-1.3 3.61c-.02.09-.02.17.1.21 1.23.48 2.59.69 3.84.69 4.7 0 7.65-2.65 7.65-7.44V2.58c0-.09-.03-.12-.12-.12zm-7.51 9.12c-1.49 0-2.55-1.23-2.55-2.97 0-1.74 1.06-2.97 2.55-2.97 1.45 0 2.54 1.2 2.54 2.97 0 1.77-1.08 2.97-2.54 2.97z">
    </path>
</svg>