<svg xmlns="http://www.w3.org/2000/svg" viewBox="0 0 64 64" aria-hidden="true" focusable="false" class="icon filter-item__icon__symbol">
    <path d="M46.76 21.94c1.28 0 2-.62 2.31-1.38h3.6c-1.21 2.83-3.55 3.3-5.89 3.3-4.05 0-6.25-2.39-6.25-5.32 0-3.71 2.86-5.46 6.13-5.46 4.3 0 6.22 2.36 6.27 6.25h-8.75c-.03 1.7 1.25 2.6 2.58 2.6zm0-6.94a2.56 2.56 0 0 0-2.6 2.41h5.1c-.04-1.77-1.17-2.4-2.5-2.4zM6 10.7v12.79h3.52v-4.4c0-2.42 1.23-3.6 2.68-3.6 1.4 0 2.14.7 2.14 2.86v5.11h3.52v-5.7c0-2.61-1.28-4.68-4.4-4.68-2.69 0-3.94 2.31-3.94 2.31v-4.7H6zm25.83 7.77c0 2.36-1.38 5.39-6.32 5.39-4.92 0-6.33-3.03-6.33-5.39s1.38-5.39 6.33-5.39 6.32 3.03 6.32 5.39zm-3.4 0c0-2.14-1.28-3.35-2.9-3.35-1.62 0-2.9 1.21-2.9 3.35s1.28 3.35 2.9 3.35 2.9-1.21 2.9-3.35zm4.01-5v2.3h1.11v4.42c0 2.41 1.43 3.54 4.23 3.54 1.06 0 2-.14 2.39-.22v-2.29c-.55.05-1.06.1-1.38.1-1.57 0-1.75-.83-1.75-2.26v-3.3h1.92v-2.28h-1.92v-2.44h-3.51v2.44h-1.09zM54.48 23.5H58V10.7h-3.52v12.8zM57 29.56v23.08H44.35V33.16H37.5v-3.6h19.48zm-22.48 3.6v-3.6H16c-5.34 0-9.64 4.58-9.64 10.19v12.89h12.62v-9.82h15.5V39.7h-15.5v-2c0-2.5 1.92-4.55 4.3-4.55H34.5z">
    </path>
</svg>