<svg xmlns="http://www.w3.org/2000/svg" viewBox="0 0 24 24" aria-hidden="true" focusable="false" class="icon filter-item__icon__symbol">
    <path d="M21.85 2.15a.52.52 0 0 1 .12.53c-.24.7-.48 1.79-.75 3.24-.27 1.45-.51 3.3-.51 6.08a33 33 0 0 0 1.26 9.31.51.51 0 0 1-.66.66A31.84 31.84 0 0 0 12 20.7a31.86 31.86 0 0 0-9.32 1.26.52.52 0 0 1-.53-.12.52.52 0 0 1-.12-.53A31.76 31.76 0 0 0 3.3 12a31.75 31.75 0 0 0-1.27-9.3.51.51 0 0 1 .66-.66A31.84 31.84 0 0 0 12 3.3a31.85 31.85 0 0 0 9.31-1.26.52.52 0 0 1 .53.12zm-13.98 9.9v-3.7c0-.17-.07-.26-.24-.26h-.75v3.7c0 .17.07.26.24.26h.75zm0-4.54v-.67c0-.17-.07-.26-.24-.26h-.75v.67c0 .17.07.26.24.26h.75zm1.76 1.67c.22-.23.45-.38.73-.38.43 0 .65.42.65 1.3 0 .87-.27 1.27-.9 1.27a1.53 1.53 0 0 1-.48-.09v-2.1zm-1 2.5c0 .17.08.21.26.27.38.1.77.16 1.17.16 1.45 0 2-.85 2-2.16 0-1.1-.34-1.97-1.43-1.97-.38.01-.74.17-1 .43V6.84c0-.17-.07-.26-.25-.26h-.74v5.1zm4.98.37v-3.7c0-.17-.07-.26-.24-.26h-.75v3.7c0 .17.07.26.24.26h.75zm0-4.54v-.67c0-.17-.07-.26-.24-.26h-.75v.67c0 .17.07.26.24.26h.75zm3.24 3.4c0-1.37-1.68-1.26-1.68-1.79 0-.19.1-.33.55-.33.31.01.62.06.92.16v-.5a.27.27 0 0 0-.18-.27 3.05 3.05 0 0 0-.92-.14c-.93 0-1.34.51-1.34 1.14 0 1.3 1.67 1.15 1.67 1.79 0 .25-.18.38-.63.38-.27 0-.68-.07-1-.15v.5a.28.28 0 0 0 .16.27c.33.1.67.14 1.01.14.84 0 1.43-.46 1.43-1.2zM5.58 12.18l-.66 3.6c-.02.11.01.13.12.15.19.05.38.07.57.07.96 0 1.4-.57 1.56-1.5.16-.87-.05-1.35-.72-1.35-.25 0-.52.1-.76.3l.21-1.15c.02-.09-.01-.12-.1-.12h-.22zm-.3 3.49.36-1.94c.22-.18.43-.3.69-.3.4 0 .62.3.47 1.11-.16.84-.5 1.18-1.12 1.18a1.4 1.4 0 0 1-.4-.05zm3.79.29h.2l.49-2.62c.01-.09-.02-.12-.1-.12h-.22l-.41 2.23c-.23.16-.46.3-.7.3-.37 0-.54-.22-.45-.7l.31-1.71c.02-.09 0-.12-.1-.12h-.22l-.33 1.83c-.05.28-.06.5.04.67.12.22.33.31.61.31.26 0 .53-.11.79-.3l-.01.1c-.02.1 0 .13.1.13zm2.47 0h.21l.67-3.66c.02-.09 0-.12-.1-.12h-.21l-.2 1.03a2 2 0 0 0-.38-.03c-.96 0-1.4.57-1.56 1.5-.16.87.05 1.35.73 1.35.24 0 .51-.1.75-.3l-.02.1c-.01.1.01.13.1.13zm.32-2.45-.35 1.94c-.23.18-.43.3-.7.3-.4 0-.62-.3-.47-1.11.16-.85.5-1.18 1.12-1.18.13 0 .27.02.4.05zm.6 3.4c.18.07.37.1.55.09.7 0 1.08-.35 1.23-1.14l.45-2.45c.02-.12-.02-.14-.12-.16a2.32 2.32 0 0 0-.57-.07c-.96 0-1.4.57-1.56 1.45-.15.85.06 1.33.73 1.33.25 0 .53-.11.77-.3l-.03.2c-.12.62-.35.85-.9.85a1.95 1.95 0 0 1-.6-.1l-.04.17c-.01.08.02.11.1.14zm1.87-3.4-.34 1.87c-.23.17-.43.3-.7.3-.4 0-.62-.3-.47-1.09.15-.8.49-1.13 1.1-1.13.14 0 .28.02.4.05zm2.26 2.27.03-.17a2.53 2.53 0 0 1-.7.1c-.58 0-.77-.3-.64-1.06h1.45c.15 0 .21-.05.24-.2.15-.8-.08-1.3-.74-1.3-.67 0-1.14.5-1.31 1.44-.18.99.14 1.4.89 1.4a2.28 2.28 0 0 0 .64-.07.17.17 0 0 0 .14-.14zm-1.26-1.4c.16-.69.45-.97.85-.97.43 0 .58.36.46.97h-1.32zm2.88 1.44.03-.16a1.33 1.33 0 0 1-.36.05c-.27 0-.36-.16-.3-.51l.32-1.69h.73l.03-.17c.02-.09 0-.12-.1-.12h-.61l.1-.52c.01-.1-.02-.12-.1-.12h-.22l-.48 2.62c-.1.55.03.8.5.8.1 0 .21-.01.32-.04a.17.17 0 0 0 .14-.15z">
    </path>
</svg>