<svg xmlns="http://www.w3.org/2000/svg" viewBox="0 0 24 24" aria-hidden="true" focusable="false">
    <path d="M21.85 2.15a.52.52 0 0 1 .12.53c-.24.7-.48 1.79-.75 3.24-.27 1.45-.51 3.3-.51 6.08a33 33 0 0 0 1.26 9.31.51.51 0 0 1-.66.66A31.84 31.84 0 0 0 12 20.7a31.86 31.86 0 0 0-9.32 1.26.52.52 0 0 1-.53-.12.52.52 0 0 1-.12-.53A31.76 31.76 0 0 0 3.3 12a31.75 31.75 0 0 0-1.27-9.3.51.51 0 0 1 .66-.66A31.84 31.84 0 0 0 12 3.3a31.85 31.85 0 0 0 9.31-1.26.52.52 0 0 1 .53.12zM7.3 14.92v-4.7c0-.2-.09-.32-.32-.32H6v4.69c0 .21.09.33.32.33h.97zm0-5.76v-.84c0-.22-.09-.33-.32-.33H6v.84c0 .22.09.33.32.33h.97zm2.3 2.12c.29-.3.58-.48.95-.48.56 0 .85.53.85 1.66 0 1.09-.36 1.6-1.18 1.6a2.05 2.05 0 0 1-.63-.11v-2.67zm-1.3 3.16c0 .22.1.28.33.35.41.12 1.02.2 1.53.2 1.89 0 2.6-1.07 2.6-2.74 0-1.38-.44-2.49-1.86-2.49-.48 0-.96.22-1.3.55v-2c0-.2-.1-.32-.32-.32H8.3v6.45zm6.49.48v-4.7c0-.2-.1-.32-.32-.32h-.97v4.69c0 .21.09.33.31.33h.98zm0-5.76v-.84c0-.21-.1-.33-.32-.33h-.97v.84c0 .22.09.33.31.33h.98zM19 13.49c0-1.74-2.2-1.6-2.2-2.27 0-.24.13-.42.73-.42.4.01.81.08 1.2.2v-.64c0-.15-.08-.3-.23-.34a4.1 4.1 0 0 0-1.2-.18c-1.21 0-1.75.66-1.75 1.45 0 1.66 2.18 1.46 2.18 2.27 0 .31-.24.48-.82.48-.35 0-.9-.08-1.31-.2v.65a.35.35 0 0 0 .22.33c.36.12.8.18 1.31.18 1.1 0 1.87-.58 1.87-1.52z">
    </path>
</svg>