<svg xmlns="http://www.w3.org/2000/svg" viewBox="0 0 24 24" aria-hidden="true" focusable="false" class="icon filter-item__icon__symbol">
    <path d="M21.59 2.14c.14.14.18.35.12.53a31.38 31.38 0 0 0-1.25 9.2c0 2.74.23 4.56.5 6 .27 1.43.5 2.5.74 3.19a.5.5 0 0 1-.64.64c-.69-.24-1.76-.47-3.2-.74-1.43-.27-3.25-.5-6-.5a31.4 31.4 0 0 0-9.19 1.25.52.52 0 0 1-.53-.12.5.5 0 0 1-.11-.52 31.38 31.38 0 0 0 1.25-9.2 31.37 31.37 0 0 0-1.25-9.19.5.5 0 0 1 .65-.65 31.4 31.4 0 0 0 9.2 1.25 31.4 31.4 0 0 0 9.19-1.25.5.5 0 0 1 .52.11zM7.97 12.12V8.48c0-.17-.07-.26-.24-.26h-.74v3.65c0 .16.06.25.24.25h.74zm0-4.47v-.66c0-.16-.07-.25-.24-.25h-.74v.65c0 .17.06.26.24.26h.74zm1.75 1.64c.22-.22.44-.37.73-.37.42 0 .64.42.64 1.29 0 .85-.26 1.24-.89 1.24a1.53 1.53 0 0 1-.48-.08V9.29zm-.99 2.46c0 .17.07.21.25.27a4.41 4.41 0 0 0 1.17.16c1.44 0 1.98-.83 1.98-2.13 0-1.07-.33-1.93-1.41-1.93a1.46 1.46 0 0 0-1 .42V7c0-.17-.07-.26-.24-.26h-.75v5.01zm4.95.37V8.48c0-.17-.07-.26-.24-.26h-.74v3.65c0 .16.07.25.24.25h.74zm0-4.47V7c0-.17-.07-.26-.24-.26h-.74v.65c0 .17.07.26.24.26h.74zM16.9 11c0-1.35-1.67-1.24-1.67-1.76 0-.19.1-.32.55-.32.31 0 .62.06.92.15v-.5a.26.26 0 0 0-.18-.26 3.07 3.07 0 0 0-.92-.14c-.92 0-1.33.51-1.33 1.12 0 1.29 1.66 1.14 1.66 1.77 0 .24-.18.37-.62.37-.27 0-.69-.07-1-.15v.5a.27.27 0 0 0 .16.26c.33.1.67.14 1 .14.84 0 1.43-.45 1.43-1.18zM5.98 16.15c.68 0 1-.38 1-.87 0-1.01-1.48-.76-1.48-1.47 0-.26.15-.43.61-.43.24 0 .49.04.72.11v-.18c0-.09-.05-.13-.13-.15a2.05 2.05 0 0 0-.65-.09c-.63 0-.93.33-.93.76 0 1 1.49.74 1.49 1.48 0 .35-.22.53-.68.53a2.77 2.77 0 0 1-.78-.12v.18c0 .1.05.14.14.16a2.4 2.4 0 0 0 .7.09zm2.24-.05h.24v-2.69h.74c.1 0 .13-.03.13-.13v-.17H7.34c-.1 0-.12.04-.12.14v.16h.87v2.56c0 .1.03.13.13.13zm1.86-.04c.16.05.43.09.7.09.77 0 1.06-.35 1.06-.98v-1.93c0-.1-.04-.13-.14-.13h-.24v1.53a2.96 2.96 0 0 1-.65.07c-.5 0-.71-.1-.71-.6v-.87c0-.1-.04-.13-.14-.13h-.24v1c0 .62.2.92 1 .92a3.86 3.86 0 0 0 .75-.08v.28c0 .47-.22.6-.76.6a2.69 2.69 0 0 1-.76-.11v.18c0 .1.04.13.13.16zm4.02-.15v-.18a2.7 2.7 0 0 1-.72.1c-.46 0-.6-.1-.6-.6v-1.99c0-.1-.03-.13-.13-.13h-.25v2.12c0 .62.13.92.89.92.23 0 .45-.03.68-.08.09-.02.13-.06.13-.16zm2.27 0v-.2c-.25.08-.5.12-.76.12-.64 0-.91-.32-.92-1.15h1.6c.17 0 .23-.06.23-.22 0-.88-.36-1.43-1.08-1.43-.74 0-1.16.55-1.16 1.58 0 1.08.44 1.54 1.27 1.54a2.36 2.36 0 0 0 .69-.1.14.14 0 0 0 .13-.15zm-1.68-1.53c.04-.75.3-1.06.75-1.06.47 0 .7.4.7 1.06H14.7zm3.07 1.77c.68 0 1-.38 1-.87 0-1.01-1.49-.76-1.49-1.47 0-.26.15-.43.62-.43.24 0 .48.04.72.11v-.18c0-.09-.05-.13-.14-.15a2.05 2.05 0 0 0-.65-.09c-.62 0-.92.33-.92.76 0 1 1.48.74 1.48 1.48 0 .35-.22.53-.68.53a2.77 2.77 0 0 1-.77-.12v.18c0 .1.05.14.13.16a2.4 2.4 0 0 0 .7.09z">
    </path>
</svg>