<svg viewBox="0 0 24 24"
    xmlns="http://www.w3.org/2000/svg" aria-hidden="true" focusable="false" class="icon filter-item__icon__symbol">
    <path d="M1 7h.09c.88 0 2.59.16 4.13 1.42 1.42 1.17 2.28 2.91 2.55 5.2l3.35-6.21a.17.17 0 0 1 .22-.07l.74.41a.16.16 0 0 1 .09.14l.44 4.04 3.29-4.59a.17.17 0 0 1 .22-.05l.51.43a.15.15 0 0 1 .08.14 8.2 8.2 0 0 0 1.17 4.86 6.58 6.58 0 0 0 5 3.16h.05l.07.18h-.1a7.52 7.52 0 0 1-4.93-1.6c-1.48-1.22-2.37-3-2.64-5.32l-3 4.26c-.09.1-.18.05-.23.02a.65.65 0 0 0-.04-.02l-.65-.33c-.06-.04-.07-.06-.08-.14l-.4-3.7-3.56 6.48c-.08.13-.19.07-.25.04l-.03-.02-.6-.3a.25.25 0 0 1-.14-.24c.3-4.39-1.83-7.65-5.27-8.03l-.05-.01L1 7Z">
    </path>
</svg>