<svg xmlns="http://www.w3.org/2000/svg" viewBox="0 0 64 64" aria-hidden="true" focusable="false" class="icon filter-item__icon__symbol">
    <path d="M18.34 18.25 6.11 30.62a29.03 29.03 0 0 1 1.27-5.96l8.65-8.75 2.31 2.34zm2.28 2.3L6 35.33c.08 1.39.28 2.76.57 4.1L22.94 22.9l-2.32-2.34zm4.6 4.65L7.64 42.99a23.9 23.9 0 0 0 1.49 3.18l18.4-18.63-2.31-2.34zm4.6 4.65L10.94 48.94c.57.74 1.19 1.45 1.85 2.13l.35.33 18.98-19.21-2.32-2.34zm4.59 4.65L15.63 53.48a22.85 22.85 0 0 0 2.89 1.77l18.2-18.42-2.32-2.35zm4.6 4.65L21.7 56.63a24.89 24.89 0 0 0 3.7.96l15.91-16.1L39 39.14zm4.59 4.64L29.56 58c1.66.04 3.34-.09 5-.36l11.36-11.49-2.32-2.35zm-2.72 12.03a27.02 27.02 0 0 0 8.78-5.9l-1.48-1.49-7.3 7.39zM24.85 7.05a25.7 25.7 0 0 0-11 6.6l2.24 2.26 8.76-8.86zm-4.17 13.5 14.25-14.4a25.78 25.78 0 0 0-4.56-.07l-12 12.14 2.31 2.35zm4.58 4.64L42.23 8.03a25.56 25.56 0 0 0-3.46-1.17l-15.8 16 2.3 2.33zm4.59 4.64L48 11.46a25.67 25.67 0 0 0-2.76-1.88L27.54 27.5l2.3 2.34zm4.6 4.66L52.61 16.1a26.18 26.18 0 0 0-2.12-2.46l-.04-.04-18.32 18.53 2.32 2.34zm4.6 4.64 16.97-17.17a26.13 26.13 0 0 0-1.57-3.1L36.73 36.79l2.32 2.34zm4.6 4.65L57.9 29.35a26.55 26.55 0 0 0-.74-3.95L41.32 41.44l2.32 2.34zm2.27 2.3 2.32 2.35 8.8-8.9a26.55 26.55 0 0 0 .96-5.66L45.92 46.09z">
    </path>
</svg>