<svg xmlns="http://www.w3.org/2000/svg" viewBox="0 0 64 64" aria-hidden="true" focusable="false" class="icon filter-item__icon__symbol">
    <path d="M32.05 26.35a22.86 22.86 0 0 1 2.93-2.13c3.43 2.93 6.16 6.2 6.16 8.14 0 1.94-2.75 5.2-6.16 8.13a23.17 23.17 0 0 1-2.96-2.12c2.45-2.07 4.36-4.43 4.36-5.98 0-1.56-1.91-3.95-4.33-6.04zm-8.5 16.17c-4.48 0-12.8-6.9-12.8-10.16s8.35-10.17 12.8-10.17c1.56 0 3.53.84 5.5 2.03a52.02 52.02 0 0 1 2.93-2.3c-3.14-2.24-6.4-3.92-8.43-3.92C18.5 18 6 28.2 6 32.36 6 36.5 18.5 46.7 23.55 46.7c2.04 0 5.3-1.67 8.44-3.92a36.78 36.78 0 0 1-2.93-2.3c-1.95 1.23-3.95 2.03-5.5 2.03zm16.9-24.49c-2.04 0-5.3 1.68-8.44 3.92a36.78 36.78 0 0 1 2.94 2.3c1.97-1.2 3.94-2.03 5.5-2.03 4.48 0 12.8 6.9 12.8 10.17 0 3.26-8.35 10.16-12.8 10.16-1.56 0-3.53-.83-5.5-2.03a52.03 52.03 0 0 1-2.94 2.3c3.15 2.24 6.4 3.92 8.44 3.92C45.5 46.74 58 36.54 58 32.39c0-4.16-12.5-14.36-17.55-14.36zM27.65 32.4c0-1.56 1.88-3.92 4.37-5.98a25.16 25.16 0 0 0-2.93-2.13c-3.41 2.93-6.16 6.2-6.16 8.14 0 1.94 2.72 5.2 6.16 8.13a25.16 25.16 0 0 0 2.93-2.12c-2.49-2.13-4.37-4.52-4.37-6.04z">
    </path>
</svg>